TITLE ""
FILE "DISC1Track35.mp3" MP3
  TRACK 01 AUDIO
    TITLE "DISC1Track35_01"
    INDEX 01 00:00:00
  TRACK 02 AUDIO
    TITLE "DISC1Track35_02"
    INDEX 01 00:04:24
  TRACK 03 AUDIO
    TITLE "DISC1Track35_03"
    INDEX 01 00:04:51
  TRACK 04 AUDIO
    TITLE "DISC1Track35_04"
    INDEX 01 00:08:71
  TRACK 05 AUDIO
    TITLE "DISC1Track35_05"
    INDEX 01 00:12:13
  TRACK 06 AUDIO
    TITLE "DISC1Track35_06"
    INDEX 01 00:16:49
  TRACK 07 AUDIO
    TITLE "DISC1Track35_07"
    INDEX 01 00:17:30
  TRACK 08 AUDIO
    TITLE "DISC1Track35_08"
    INDEX 01 00:21:34
  TRACK 09 AUDIO
    TITLE "DISC1Track35_09"
    INDEX 01 00:24:46
  TRACK 10 AUDIO
    TITLE "DISC1Track35_10"
    INDEX 01 00:27:50
  TRACK 11 AUDIO
    TITLE "DISC1Track35_11"
    INDEX 01 00:27:72
  TRACK 12 AUDIO
    TITLE "DISC1Track35_12"
    INDEX 01 00:31:48
  TRACK 13 AUDIO
    TITLE "DISC1Track35_13"
    INDEX 01 00:34:29
  TRACK 14 AUDIO
    TITLE "DISC1Track35_14"
    INDEX 01 00:37:04
  TRACK 15 AUDIO
    TITLE "DISC1Track35_15"
    INDEX 01 00:37:27
  TRACK 16 AUDIO
    TITLE "DISC1Track35_16"
    INDEX 01 00:41:60
  TRACK 17 AUDIO
    TITLE "DISC1Track35_17"
    INDEX 01 00:45:38
  TRACK 18 AUDIO
    TITLE "DISC1Track35_18"
    INDEX 01 00:49:09
  TRACK 19 AUDIO
    TITLE "DISC1Track35_19"
    INDEX 01 00:49:32
  TRACK 20 AUDIO
    TITLE "DISC1Track35_20"
    INDEX 01 00:53:09
  TRACK 21 AUDIO
    TITLE "DISC1Track35_21"
    INDEX 01 00:56:46
  TRACK 22 AUDIO
    TITLE "DISC1Track35_22"
    INDEX 01 01:00:05
  TRACK 23 AUDIO
    TITLE "DISC1Track35_23"
    INDEX 01 01:00:26
  TRACK 24 AUDIO
    TITLE "DISC1Track35_24"
    INDEX 01 01:04:44
  TRACK 25 AUDIO
    TITLE "DISC1Track35_25"
    INDEX 01 01:08:10
  TRACK 26 AUDIO
    TITLE "DISC1Track35_26"
    INDEX 01 01:11:52
  TRACK 27 AUDIO
    TITLE "DISC1Track35_27"
    INDEX 01 01:11:69
  TRACK 28 AUDIO
    TITLE "DISC1Track35_28"
    INDEX 01 01:14:54
  TRACK 29 AUDIO
    TITLE "DISC1Track35_29"
    INDEX 01 01:17:21
  TRACK 30 AUDIO
    TITLE "DISC1Track35_30"
    INDEX 01 01:19:67
  TRACK 31 AUDIO
    TITLE "DISC1Track35_31"
    INDEX 01 01:20:15
  TRACK 32 AUDIO
    TITLE "DISC1Track35_32"
    INDEX 01 01:22:36
  TRACK 33 AUDIO
    TITLE "DISC1Track35_33"
    INDEX 01 01:24:62
  TRACK 34 AUDIO
    TITLE "DISC1Track35_34"
    INDEX 01 01:27:07
  TRACK 35 AUDIO
    TITLE "DISC1Track35_35"
    INDEX 01 01:27:33
  TRACK 36 AUDIO
    TITLE "DISC1Track35_36"
    INDEX 01 01:29:55
  TRACK 37 AUDIO
    TITLE "DISC1Track35_37"
    INDEX 01 01:31:72
  TRACK 38 AUDIO
    TITLE "DISC1Track35_38"
    INDEX 01 01:34:06
  TRACK 39 AUDIO
    TITLE "DISC1Track35_39"
    INDEX 01 01:34:25
  TRACK 40 AUDIO
    TITLE "DISC1Track35_40"
    INDEX 01 01:37:29
  TRACK 41 AUDIO
    TITLE "DISC1Track35_41"
    INDEX 01 01:40:28
  TRACK 42 AUDIO
    TITLE "DISC1Track35_42"
    INDEX 01 01:43:14
